<mxfile host="app.diagrams.net" modified="2020-09-14T17:35:39.612Z" agent="5.0 (Macintosh; Intel Mac OS X 10_13_6) AppleWebKit/537.36 (KHTML, like Gecko) Chrome/57.0.2987.110 Safari/537.36" etag="kNX097_hGxm9tYOmbPG_" version="13.7.0" type="github">
  <diagram id="zpSBYh-TakH2NZ2DYpdP" name="Page-1">
    <mxGraphModel dx="1947" dy="683" grid="1" gridSize="10" guides="1" tooltips="1" connect="1" arrows="1" fold="1" page="1" pageScale="1" pageWidth="850" pageHeight="1100" math="0" shadow="0">
      <root>
        <mxCell id="0" />
        <mxCell id="1" parent="0" />
        <mxCell id="xg92BUE5WByUhW0lsfQ8-13" value="" style="ellipse;whiteSpace=wrap;html=1;fillColor=#E6D0DE;" parent="1" vertex="1">
          <mxGeometry x="320" y="140" width="330" height="290" as="geometry" />
        </mxCell>
        <mxCell id="xg92BUE5WByUhW0lsfQ8-1" value="&lt;b&gt;KAFKA&lt;br&gt;(topics)&lt;/b&gt;" style="shape=cylinder2;whiteSpace=wrap;html=1;boundedLbl=1;backgroundOutline=1;size=15;fillColor=#D4E1F5;" parent="1" vertex="1">
          <mxGeometry x="425" y="170" width="110" height="100" as="geometry" />
        </mxCell>
        <mxCell id="xg92BUE5WByUhW0lsfQ8-2" value="splunk-kafka-connect" style="shape=process;whiteSpace=wrap;html=1;backgroundOutline=1;fillColor=#B9E0A5;" parent="1" vertex="1">
          <mxGeometry x="460" y="320" width="120" height="60" as="geometry" />
        </mxCell>
        <mxCell id="xg92BUE5WByUhW0lsfQ8-3" value="SPLUNK&lt;br&gt;(Http Event Collector)" style="shape=cylinder2;whiteSpace=wrap;html=1;boundedLbl=1;backgroundOutline=1;size=15;fillColor=#9DE016;" parent="1" vertex="1">
          <mxGeometry x="730" y="190" width="84" height="120" as="geometry" />
        </mxCell>
        <mxCell id="xg92BUE5WByUhW0lsfQ8-10" value="" style="shape=flexArrow;endArrow=classic;html=1;fillColor=#FFF2CC;" parent="1" edge="1">
          <mxGeometry width="50" height="50" relative="1" as="geometry">
            <mxPoint x="495" y="270" as="sourcePoint" />
            <mxPoint x="535" y="320" as="targetPoint" />
          </mxGeometry>
        </mxCell>
        <mxCell id="xg92BUE5WByUhW0lsfQ8-11" value="" style="shape=flexArrow;endArrow=classic;html=1;fillColor=#FFF2CC;" parent="1" edge="1">
          <mxGeometry width="50" height="50" relative="1" as="geometry">
            <mxPoint x="595" y="310" as="sourcePoint" />
            <mxPoint x="730" y="260" as="targetPoint" />
          </mxGeometry>
        </mxCell>
        <mxCell id="xg92BUE5WByUhW0lsfQ8-15" value="" style="shape=flexArrow;endArrow=classic;html=1;entryX=0.226;entryY=0.31;entryDx=0;entryDy=0;entryPerimeter=0;fillColor=#FFF2CC;" parent="1" target="xg92BUE5WByUhW0lsfQ8-13" edge="1">
          <mxGeometry width="50" height="50" relative="1" as="geometry">
            <mxPoint x="200" y="250" as="sourcePoint" />
            <mxPoint x="170" y="200" as="targetPoint" />
            <Array as="points" />
          </mxGeometry>
        </mxCell>
        <mxCell id="xg92BUE5WByUhW0lsfQ8-16" value="Kafka Cluster" style="text;html=1;strokeColor=none;fillColor=none;align=center;verticalAlign=middle;whiteSpace=wrap;rounded=0;" parent="1" vertex="1">
          <mxGeometry x="425" y="380" width="170" height="60" as="geometry" />
        </mxCell>
        <mxCell id="hypkmHDY_TjVGPaCAVM4-1" value="&lt;b&gt;&lt;font style=&quot;font-size: 14px&quot;&gt;Next-Gen RNA Lite Architecture&lt;/font&gt;&lt;/b&gt;" style="text;html=1;strokeColor=none;fillColor=none;align=center;verticalAlign=middle;whiteSpace=wrap;rounded=0;" parent="1" vertex="1">
          <mxGeometry x="200" y="80" width="320" height="30" as="geometry" />
        </mxCell>
        <mxCell id="KfNdmFFUwVvpi7Xx2Tqp-3" value="&lt;b&gt;RNALite App&lt;br&gt;&lt;/b&gt;(As File processor and Kafka Producer)&lt;br&gt;&lt;br&gt;&lt;i&gt;&lt;b&gt;Functions:&lt;/b&gt;&lt;/i&gt;&lt;br&gt;&lt;br&gt;1. Move files from NAS to local&lt;br&gt;2. Process each file in local directory and send each record to Kafka topics&lt;br&gt;3. Able to parse &amp;nbsp;XML,JSON,CVS records&lt;br&gt;4. Transform XML to JSON via Jackson/Pojo model" style="ellipse;whiteSpace=wrap;html=1;fillColor=#D5E8D4;" vertex="1" parent="1">
          <mxGeometry x="-120" y="110" width="311" height="280" as="geometry" />
        </mxCell>
        <mxCell id="KfNdmFFUwVvpi7Xx2Tqp-4" value="&lt;h1&gt;Kafka Benefits&lt;/h1&gt;&lt;p&gt;1. TDRs and CDRs are stored as distinct records&lt;br&gt;&lt;span&gt;2. Data Persistence is maintained at customized retention policy;&lt;br&gt;&lt;/span&gt;&lt;span&gt;2. Multiple applications can read the data for different purposes as Kafka clients. (Splunk is just &amp;nbsp;one of them)&lt;br&gt;4.Different TDRS from different sources are sent to different topics for scalable processing model.&lt;br&gt;5.Remediation of back pressure issue to the existing Splunk file spooling model&lt;/span&gt;&lt;/p&gt;&lt;p&gt;&lt;br&gt;&lt;/p&gt;" style="text;html=1;strokeColor=none;fillColor=none;spacing=5;spacingTop=-20;whiteSpace=wrap;overflow=hidden;rounded=0;" vertex="1" parent="1">
          <mxGeometry x="370" y="440" width="310" height="200" as="geometry" />
        </mxCell>
        <mxCell id="KfNdmFFUwVvpi7Xx2Tqp-5" value="&lt;h1&gt;RNALIte Features:&lt;/h1&gt;&lt;div&gt;1.SpringBoot/Camel/REST Management&lt;/div&gt;&lt;div&gt;2.Multi-thread model&lt;/div&gt;&lt;div&gt;3.Functions are implemented as Camel routes&lt;/div&gt;&lt;div&gt;4.Scalability achieved using Docker/Kubernetes&lt;/div&gt;&lt;div&gt;5.Fault Tolerance using DeadLetter queue in Kafka for retries.&lt;/div&gt;" style="text;html=1;strokeColor=none;fillColor=none;spacing=5;spacingTop=-20;whiteSpace=wrap;overflow=hidden;rounded=0;" vertex="1" parent="1">
          <mxGeometry x="-70" y="430" width="290" height="140" as="geometry" />
        </mxCell>
        <mxCell id="KfNdmFFUwVvpi7Xx2Tqp-7" value="NAS" style="shape=cylinder3;whiteSpace=wrap;html=1;boundedLbl=1;backgroundOutline=1;size=15;fillColor=#D5E8D4;" vertex="1" parent="1">
          <mxGeometry x="-230" y="220" width="60" height="80" as="geometry" />
        </mxCell>
        <mxCell id="KfNdmFFUwVvpi7Xx2Tqp-9" value="Local" style="shape=cylinder3;whiteSpace=wrap;html=1;boundedLbl=1;backgroundOutline=1;size=15;fillColor=#D5E8D4;" vertex="1" parent="1">
          <mxGeometry x="-170" y="40" width="60" height="80" as="geometry" />
        </mxCell>
        <mxCell id="KfNdmFFUwVvpi7Xx2Tqp-10" value="" style="shape=flexArrow;endArrow=classic;html=1;" edge="1" parent="1">
          <mxGeometry width="50" height="50" relative="1" as="geometry">
            <mxPoint x="250" y="410" as="sourcePoint" />
            <mxPoint x="300" y="360" as="targetPoint" />
          </mxGeometry>
        </mxCell>
        <mxCell id="KfNdmFFUwVvpi7Xx2Tqp-12" value="" style="shape=flexArrow;endArrow=classic;html=1;" edge="1" parent="1">
          <mxGeometry width="50" height="50" relative="1" as="geometry">
            <mxPoint x="-190" y="200" as="sourcePoint" />
            <mxPoint x="-140" y="150" as="targetPoint" />
          </mxGeometry>
        </mxCell>
        <mxCell id="KfNdmFFUwVvpi7Xx2Tqp-13" value="" style="shape=flexArrow;endArrow=classic;html=1;" edge="1" parent="1" target="KfNdmFFUwVvpi7Xx2Tqp-3">
          <mxGeometry width="50" height="50" relative="1" as="geometry">
            <mxPoint x="-90" y="90" as="sourcePoint" />
            <mxPoint x="-10" y="80" as="targetPoint" />
          </mxGeometry>
        </mxCell>
      </root>
    </mxGraphModel>
  </diagram>
</mxfile>
